<svg width="34" height="45" viewBox="0 0 34 45" fill="none" xmlns="http://www.w3.org/2000/svg">
<path d="M15.8688 24.2341C16.1791 24.5471 16.5895 24.7011 16.9999 24.7011C17.4103 24.7011 17.8197 24.5459 18.132 24.2354L26.1395 16.2867C26.7651 15.6657 26.7651 14.6597 26.1395 14.0387C25.5139 13.4178 24.5004 13.4178 23.8749 14.0387L16.9999 20.8659L10.1249 14.039C9.49934 13.418 8.48589 13.418 7.8603 14.039C7.23472 14.66 7.23472 15.666 7.8603 16.287L15.8688 24.2341ZM23.8764 23.5784L16.9999 30.4043L10.1249 23.5784C9.49934 22.9574 8.48589 22.9574 7.8603 23.5784C7.23472 24.1993 7.23472 25.2053 7.8603 25.8263L15.8678 33.775C16.1791 34.0855 16.5895 34.2395 16.9999 34.2395C17.4103 34.2395 17.8197 34.0842 18.132 33.7737L26.1395 25.8251C26.7651 25.2041 26.7651 24.1981 26.1395 23.5771C25.5139 22.9561 24.5019 22.9574 23.8764 23.5784Z" fill="#BCB09F"/>
</svg>
